<?xml version="1.0" encoding="utf-8"?>
<!-- Generator: Adobe Illustrator 16.0.0, SVG Export Plug-In . SVG Version: 6.00 Build 0)  -->
<!DOCTYPE svg PUBLIC "-//W3C//DTD SVG 1.1//EN" "http://www.w3.org/Graphics/SVG/1.1/DTD/svg11.dtd">
<svg version="1.1" id="Layer_1" xmlns="http://www.w3.org/2000/svg" xmlns:xlink="http://www.w3.org/1999/xlink" x="0px" y="0px"
	 width="425.979px" height="434.979px" viewBox="-10.86 44.102 425.979 434.979"
	 enable-background="new -10.86 44.102 425.979 434.979" xml:space="preserve">
<circle fill="#FFFFFF" cx="202.129" cy="261.591" r="202.116"/>
<g>
	<path fill-rule="evenodd" clip-rule="evenodd" fill="#A57358" d="M111.688,322.535c2.743,16.041,10.901,26.414,18.704,37.16
		c8.48,5.596,15.986,12.21,24.956,17.293c6.046,0.756,9.686,4.03,14.315,6.266c21.279-0.524,45.853,8.087,65.933-1.733
		c1.819-0.89,3.583-0.908,5.115-0.382c8.69-4.286,19.788-10.308,21.285-10.666c5.829-4.437,11.943-8.873,15.665-14.868
		c1.493-2.408,2.655-4.333,4.311-6.796c0.487-1.229,5.4-14.608,6.626-19.5c0.116-0.049,0.224-0.053,0.335-0.088
		c0.154-1.117,0.359-2.215,0.705-3.295c-0.064-2.971,1.166-4.703,1.319-7.463c0.54,0.072,0.676-0.706,1.074-1.887
		c1.635,0.081,4.283-0.32,6.154-1.441c0.171-0.174,0.354-0.342,0.56-0.486c0.119-0.082,0.256-0.134,0.379-0.208
		c0.096-0.091,0.207-0.168,0.294-0.263c0.007,0.027,0.004,0.063,0.011,0.092c1.102-0.607,2.309-1.014,3.415-1.537
		c0.027-0.044,0.042-0.069,0.085-0.136c0.141-0.215,0.307-0.404,0.484-0.579c0.009-0.181,0.035-0.35,0.039-0.536
		c5.776-6.597,1.956-21.266-5.004-23.701c9.043-36.671-2.888-78.354-20.853-101.016c-6.673-8.419-14.83-15.733-23.897-21.066
		c-13.43-7.9-30.694-12.602-47.284-14.256c-13.594,0.129-25.113,0.185-36.788,2.323c-0.712,0.168-0.26,1.447-1.463,1.149
		c-2.978-0.057-4.241,1.526-7.032,1.647c-2.079,1.652-5.037,2.465-8.115,3.162c-7.251,4.472-13.893,9.526-21.267,13.878
		c-2.188,2.519-3.519,5.856-6.908,7.229c-8.317,14.361-18.438,31.418-20.803,50.708c-0.008,0.073-0.692,0.616-0.727,0.76
		c-4.331,18.557-2.341,41.41,0.269,61.021c-2.457,1.05-3.761,3.201-5.848,4.601c-3.065,7.727,0.512,16.043,3.836,21.494
		C105.336,320.33,108.232,322.307,111.688,322.535z"/>
	<path fill-rule="evenodd" clip-rule="evenodd" fill="#0F0F0F" d="M266.94,280.331c-0.221,0.231,2.581,0.32,2.215-0.796
		c0.587,0.146,0.343,1.165,1.505,0.712c0.221,0.82-0.7,0.544-0.719,1.134c0.179,0.828,1.836,0.108,2.612,0.312
		c-1.154,2.672,2.03,2.362,0.852,4.817c0.513,0.736,1.671,0.792,2.629,1.06c0.018,0.742,0.035,1.485,0.052,2.229
		c-3.077-1.179-8.077-3.699-10.854-2.731c0.251-1.275-1.522-0.437-1.158-1.832c-9.551-1.388-16.376,1.96-24.47,3.904
		c-0.63,0.149-0.708-0.272-0.76-0.727c-1.113,1.615-3.332,3.087-5.545,1.613c1.334-4.75,3.078-10.564,9.103-8.766
		c1.389-2.442,5.316-0.771,6.634-2.756c0.745-0.143,1.167,0.051,1.133,0.72c0.564-0.796,1.798-0.953,2.191-1.912
		c0.857,0.594,2.406,1.275,2.594-0.431c2.552,0.066,4.426,1.578,6.331,0.229c0.443,1.163,0.053,0.842,0.052,2.231
		c2.167-2.136,3.584-0.075,5.94-0.507C267.26,279.425,267.488,280.249,266.94,280.331z"/>
	<path fill-rule="evenodd" clip-rule="evenodd" fill="#6B5449" d="M219.501,354.345c1.023,2.553-1.548,4.172-2.469,6.012
		c-5.073,2.426-9.876-0.831-16.008-0.385c-6.535,0.478-15.959,3.772-17.956-4.054c2.22,0.213,3.85,1.048,4.896,2.493
		c6.386,1.374,10.084-2.479,17.091-1.136c6.818,1.312,8.633,2.128,12.239-1.765C218.059,354.684,217.536,353.858,219.501,354.345z"
		/>
	<path fill-rule="evenodd" clip-rule="evenodd" fill="#6B5449" d="M208.217,365.395c0.978-0.139,0.978,0.75,1.149,1.461
		c-1.6,3.949-14.904,2.816-12.325-1.955C199.513,366.188,205.432,368.002,208.217,365.395z"/>
	<path fill-rule="evenodd" clip-rule="evenodd" fill="#0F0F0F" d="M247.218,299.043c6.803-1.863,11.749,2.61,9.673,9.674
		c-1.665,0.319-2.543,1.425-3.72,2.231C243.656,314.219,243.181,302.788,247.218,299.043z"/>
	<path fill-rule="evenodd" clip-rule="evenodd" d="M251.367,301.354c2.38,0.72,3.279,2.92,2.974,6.324
		c-1.292,0.443-3.225,0.245-4.093,1.116C246.581,307.595,247.005,301.405,251.367,301.354z"/>
	<path fill-rule="evenodd" clip-rule="evenodd" fill="#FFFFFF" d="M253.535,301.354c1.177,0.357,1.624,1.446,1.474,3.132
		c-0.643,0.217-1.598,0.119-2.027,0.553C251.166,304.443,251.375,301.379,253.535,301.354z"/>
	<path fill-rule="evenodd" clip-rule="evenodd" fill="#333333" d="M238.135,302.492c11.431-4.011,22.752-3.722,31.994,0.419
		c0.267-2.191-1.824-2.137-2.14-3.774c-7.534-2.32-16.136-5.658-24.509-2.095c-0.813,0.347-1.06,1.615-1.915,2.187
		C240.183,300.153,237.165,300.088,238.135,302.492z"/>
	<path fill-rule="evenodd" clip-rule="evenodd" fill="#0F0F0F" d="M138.635,280.331c0.219,0.231-2.584,0.32-2.215-0.796
		c-0.587,0.146-0.345,1.165-1.505,0.712c-0.223,0.82,0.698,0.544,0.717,1.134c-0.179,0.828-1.835,0.108-2.611,0.312
		c1.155,2.672-2.031,2.362-0.853,4.817c-0.512,0.736-1.671,0.792-2.629,1.06c-0.018,0.742-0.033,1.485-0.051,2.229
		c3.078-1.179,8.077-3.699,10.854-2.731c-0.25-1.275,1.522-0.437,1.157-1.832c9.552-1.388,16.377,1.96,24.471,3.904
		c0.63,0.149,0.709-0.272,0.761-0.727c1.111,1.615,3.331,3.087,5.545,1.613c-1.334-4.75-3.079-10.564-9.104-8.766
		c-1.388-2.442-5.316-0.771-6.634-2.756c-0.745-0.143-1.167,0.051-1.133,0.72c-0.563-0.796-1.798-0.953-2.191-1.912
		c-0.856,0.594-2.405,1.275-2.594-0.431c-2.552,0.066-4.426,1.578-6.332,0.229c-0.443,1.163-0.052,0.842-0.05,2.231
		c-2.167-2.136-3.584-0.075-5.942-0.507C138.312,279.425,138.086,280.249,138.635,280.331z"/>
	<path fill-rule="evenodd" clip-rule="evenodd" fill="#0F0F0F" d="M158.355,299.043c-6.803-1.863-11.748,2.61-9.673,9.674
		c1.666,0.319,2.544,1.425,3.721,2.231C161.917,314.219,162.392,302.788,158.355,299.043z"/>
	<path fill-rule="evenodd" clip-rule="evenodd" d="M154.209,301.354c-2.381,0.72-3.281,2.92-2.976,6.324
		c1.292,0.443,3.225,0.245,4.092,1.116C158.994,307.595,158.568,301.405,154.209,301.354z"/>
	<path fill-rule="evenodd" clip-rule="evenodd" fill="#FFFFFF" d="M152.04,301.354c-1.178,0.357-1.625,1.446-1.473,3.132
		c0.64,0.217,1.597,0.119,2.026,0.553C154.409,304.443,154.199,301.379,152.04,301.354z"/>
	<path fill-rule="evenodd" clip-rule="evenodd" fill="#333333" d="M167.439,302.492c-11.432-4.011-22.753-3.722-31.994,0.419
		c-0.268-2.191,1.823-2.137,2.14-3.774c7.533-2.32,16.135-5.658,24.508-2.095c0.812,0.347,1.06,1.615,1.915,2.187
		C165.392,300.153,168.41,300.088,167.439,302.492z"/>
	<g>
		<path fill-rule="evenodd" clip-rule="evenodd" fill="#0F0F0F" d="M301.439,227.34c-0.096,0.912-1.234,0.004-1.092-0.442
			c-1.976-13.066-6.973-23.448-12.9-33.004c-4.25,9.532-9.691,17.715-18.141,22.482c9.631,7.202,14.809,18.368,21.386,28.282
			c3.222,11.94,7.947,24.098,9.331,36.53C307.729,266.89,305.461,242.194,301.439,227.34z M284.751,207.586
			c0.69,1.033,1.763,1.729,2.438,2.772c0.562-0.984-1.097-3.012-1.999-3.869c1.64-0.915,3.98,4.132,2.697,4.66
			c3.363,1.218,4.09,7.277,6.835,10.16c-1.285,0.203-0.379-1.544-1.788-1.233c0.895,0.264,0.223,1.92,1.765,1.606
			c-1.308,1.743,0.809,2.804,0.404,5.643c-3.464-1.39-2.565-6.662-6.23-7.873c-0.875-4.047-4.725-5.447-5.375-9.694
			C285.972,209.651,283.173,208.4,284.751,207.586z M301.092,263.651c-0.357-11.094-4.262-19.037-9.617-25.687
			c0.357-0.524,0.382-1.427,1.553-1.03c-1.839-4.012-4.7-7.116-6.396-11.253c0.087-0.435,0.697-0.272,1.137-0.306
			c0.349,0.513,0.28,1.397,0.63,1.912c5.958,4.466,7.608,12.764,10.722,19.761c0.792,4.825,2.081,9.208,2.873,14.036
			C301.671,261.915,302.485,264.038,301.092,263.651z"/>
		<path fill-rule="evenodd" clip-rule="evenodd" fill="#0F0F0F" d="M130.394,214.573c-1.281,0.481-3.155-1.231-2.995,0.191
			c0.94,0.898,2.828,0.828,3.321,0.579C130.433,215.244,130.307,215.004,130.394,214.573z"/>
		<path fill-rule="evenodd" clip-rule="evenodd" fill="#0F0F0F" d="M104.915,216.754c-1.586,7.507-4.595,13.397-4.727,22.557
			c0.052,0.776,1.639,0.191,1.417,1.211c-2.79,18.256,0.165,34.689,6.861,46.493c2.254-25.778,7.543-53.907,20.305-70.293
			c-8.328-1.934-13.038-4.869-18.369-10.493C109.035,210.263,107.686,214.315,104.915,216.754z M117.547,223.523
			c-2.47,9.502-6.187,19.416-8.547,30.188c-0.771-5.266,1.196-10.874,2.068-15.604c-0.44-0.124-0.612,0.057-0.702,0.331
			c0.961-5.04,4.654-10.117,6.463-15.333C117.263,223.07,117.484,223.228,117.547,223.523z M113.918,215.809
			c-1.86,7.329-6.001,15.525-7.814,24.242c-1.577-8.877,2.563-17.356,5.19-24.029C112.078,215.85,113.706,216.634,113.918,215.809z"
			/>
		<path fill-rule="evenodd" clip-rule="evenodd" fill="#0F0F0F" d="M189.994,202.883c1.101,0.201,0.853,1.594,2.532,1.278
			C192.796,202.957,190.546,202.188,189.994,202.883z"/>
		<path fill-rule="evenodd" clip-rule="evenodd" fill="#0F0F0F" d="M198.004,205.997
			C192.619,205.229,193.307,206.856,198.004,205.997L198.004,205.997z"/>
		<path fill-rule="evenodd" clip-rule="evenodd" fill="#0F0F0F" d="M265.882,205.302c-2.605,2.228-5.651,3.955-8.208,6.237
			C261.37,210.549,264.066,208.425,265.882,205.302z"/>
		<path fill-rule="evenodd" clip-rule="evenodd" fill="#0F0F0F" d="M116.307,250.04c1.117,0.208,0.844-1.167,1.226-1.796
			c-0.368-0.022-0.742-0.046-1.113-0.068C116.383,248.798,116.342,249.419,116.307,250.04z"/>
		<path fill-rule="evenodd" clip-rule="evenodd" fill="#0F0F0F" d="M147.927,137.645c-0.806,0.4-1.604,0.806-2.391,1.227
			c0.197,0.683,0.423,1.365,0.667,2.047c2.454-0.325,4.968-0.517,7.521-0.607C151.673,139.48,149.7,138.542,147.927,137.645z"/>
		<path fill-rule="evenodd" clip-rule="evenodd" fill="#0F0F0F" d="M285.645,180.672c0.932-13.066-7.479-17.821-12.216-25.848
			c-0.826,1.748-0.255,3.08-0.713,5.574c-0.736-0.171-1.166,0.005-1.157,0.679c-0.476-0.403-0.668-1.054-1.417-1.212
			c0.067-1.118,0.136-2.239,0.203-3.358c-3.69-7.661-8.296-14.506-14.831-19.641c-1.241,4.166,3.539,6.03,3.47,10.326
			c-2.545-2.323-4.91-4.812-6.995-7.547c-1.534-0.852-2.984-1.777-4.397-2.735c-3.063,0.058-6.125,0.084-9.188,0.087
			c0.577,0.549,1.16,1.067,1.727,1.544c-1.44-0.335-2.815-0.87-4.133-1.543c-5.439-0.015-10.88-0.102-16.318-0.238
			c-18.494,2.271-37.309,2.354-55.826,0.434c0.437,1.098,0.866,2.206,1.204,3.389c25.729,2.082,53.69,13.376,71.92,24.667
			c7.211,4.467,0.596,15.878-6.655,11.388c-2.414-1.496-4.889-2.951-7.416-4.36c0.013,0.114,0.076,0.246,0.235,0.429
			c3.757,5.364,6.309,11.803,9.746,17.454c0.797,3.409,1.136,7.227,1.962,10.609c0.392,1.506-1.267,0.686-0.878,2.193
			c0.11,0.844,1.821,0.264,2.576,0.534c7.705,8.721,20.743-4.165,18.733-13.833c0.626-5.258-1.93-7.695-2.242-12.124
			c3.753,2.899,4.387,8.57,5.495,13.822c0.151,0.841-0.742,0.489-0.813,1.075c1.256,7.773-4.241,14.527-10.677,16.197
			c-0.004,0.828,1.567,0.256,2.207,0.512c-4.093,1.335,3.415,3.518,5.411,2.955c1.79-0.508,1.979-3.075,3.872-2.384
			c2.279-5.257,7.266-7.437,8.311-14.098c1.12,0.339,1.377-0.297,2.25-0.236c0.168,1.479,0.18,3.857-1.037,4.805
			c0.634,1.301,1.112,2.194,2.091,2.377c-2.48,5.561-6.249,9.656-11.191,12.419c1.704,1.258,4.133-0.081,6.313,0.39
			c9.231-5.474,16.888-12.734,20.504-24.585C285.467,187.001,287.749,182.979,285.645,180.672z M243.518,174.711
			c-0.222-0.124-1.373-1.016-1.486-0.091c-2.864-10.141-6.959-19.19-13.243-26.292c-0.409-0.386-0.794-0.776-1.111-1.186
			c0.003-0.01,0.001-0.015,0.004-0.024c-0.239-0.251-0.458-0.521-0.702-0.767c-3.605-1.736-5.342-5.132-8.502-7.266
			c3.732-0.138,4.974,4.991,8.572,6.146c-0.345,1.122,0.947,0.791,0.632,1.887c0.377,0.396,0.746,0.8,1.107,1.21
			c1.902,1.791,4.597,3.405,6.301,5.637c0.994,1.306,1.302,3.361,2.326,4.639c0.656,0.82,0.85,1.21,1.697,2.726
			c1.589,2.837,5.043,6.186,4.935,10.79C244.072,171.156,243.07,174.441,243.518,174.711z"/>
		<path fill-rule="evenodd" clip-rule="evenodd" fill="#0F0F0F" d="M221.168,174.459c0.045-0.878,0.707-1.06,0.508-2.215
			c-0.232-0.338-0.463-0.673-0.695-1.01c-17.593-9.544-37.555-16.695-57.235-18.07c-3.658-0.256-7.432-0.352-11.188-0.142
			c0.636,0.942,1.277,1.862,1.917,2.729c-1.124,3.054-7.499,0.646-10.375-1.012c-0.252-0.145-0.51-0.302-0.768-0.458
			c-4.044,0.939-7.928,2.434-11.463,4.713c-0.415,0.267-0.799,0.557-1.192,0.839c0.593,1.82,1.17,3.616,1.601,5.416
			c-2.312-0.277-3.772-1.31-5.298-2.285c-0.545,0.544-1.065,1.104-1.562,1.681c0.063,3.018,1.85,5.77,3.457,7.51
			c-1.122,0.056-1.942,0.454-2.319,1.356c0.674,1.115,0.92-1.155,1.463,0.464c-1.046,0.943-2.576,1.332-2.107,3.992
			c-0.72,0.955-0.138-2.203-0.191-3.009c-1.013-0.672-2.292-1.11-3.608-1.513c-0.909,2.24-1.884,4.455-2.863,6.668
			c-0.109,0.518-0.305,1.03-0.642,1.524c-0.01-0.004-0.017-0.01-0.025-0.012c-0.878,1.992-1.741,3.991-2.536,6.019
			c-1.944,4.96-6.849,5.625-9.993,3.417c0.229,1.787,0.445,3.587,0.853,5.214c3.667,7.801,8.955,14.155,17.961,17.212
			c0.54-0.052,0.197-1.107,0.81-1.076c4.562,1.533,6.998,2.593,14.74,2.781c-8.749-4.342-16.845-9.262-20.908-17.768
			c1.397-0.102,1.794,1.755,3.992,1.744c4.631,8.369,20.542,18.779,32.898,10.638c-6.953-3.819-11.75-11.438-12.997-19.151
			c0.86-0.233,2.068,1.794,2.024,3.494c4.119,6.221,10.794,16.327,20.109,12.474c-1.607-5.745-7.251-7.905-7.281-15.055
			c4.409,4.668,5.203,12.552,12.92,14.277c0.252-1.311,1.833-1.109,3.409-0.911c-1.01-2.28-2.648-4-2.538-7.275
			c1.444,0.484,2.141,1.626,2.023,3.497c3.233,4.208,5.953,3.702,12.816,3.783c-1.146-3.922-3.84-6.469-5.744-9.715
			c-1.047-4.603-3.791-9.572-4.406-13.382c0.993-1.416,0.825,3.443,1.813,0.862c0.781,0.165-0.028,1.772-0.833,1.445
			c-0.202,0.886,1.704-0.102,1.047,1.189c0.88,0.203-0.104-1.711,1.181-1.051c3.295,8.483,5.579,17.864,16.71,19.38
			c-0.291-4.095-4.371-7.877-4.798-13.029c4.172,2.055,3.617,8.316,7.557,10.578c-0.046,0.745-0.091,1.494-0.137,2.238
			c4.438,0.253,6.793-1.858,10.929-1.95c-0.075-1.579,0.768-3.977-0.471-4.524c-0.327-7.003-3.043-11.883-7.26-15.429
			c0.339-1.124-0.573-1.136-0.232-2.261c1.307,0.485,2.666,0.924,2.833,2.422c1.682-0.732,0.428-0.547,1.44,0.838
			c1.87,2.556,5.912,8.013,5.562,12.702c0.051,0.662,0.586,0.891,1.44,0.836c-0.313,1.691,0.517,2.368,0.123,4.128
			c6.985,0.397,10.32-0.545,16.71,1.027c1.605-3.148-0.337-8.105-1.571-10.958C229.403,183.495,224.398,178.968,221.168,174.459z
			 M167.198,179.382c-3.209-5.383-7.544-9.765-11.807-14.211c5.849,2.212,9.865,9.114,13.663,14.326
			C168.437,179.457,167.815,179.419,167.198,179.382z M188.668,163.471c3.098,2.303,5.198,5.496,7.297,8.69
			C192.83,169.887,191.022,166.438,188.668,163.471z"/>
	</g>
	<g>
		<path fill-rule="evenodd" clip-rule="evenodd" fill="#0F0F0F" d="M191.292,381.082c-3.155-0.797-6.021-1.885-8.583-3.282
			C184.333,379.903,188.418,381.496,191.292,381.082z"/>
		<path fill-rule="evenodd" clip-rule="evenodd" fill="#0F0F0F" d="M204.844,401.438c1.234-0.385,4.052,0.79,4.086-0.776
			C207.696,401.045,204.877,399.87,204.844,401.438z"/>
		<path fill-rule="evenodd" clip-rule="evenodd" fill="#0F0F0F" d="M194.03,398.173c0.974,0.135,1.049,1.186,2.609,0.724
			C196.235,397.866,194.594,396.994,194.03,398.173z"/>
		<path fill-rule="evenodd" clip-rule="evenodd" fill="#0F0F0F" d="M287.242,328.622c-7.171,11.153-16.427,20.252-32.94,22.204
			c-2.192-0.768-7.742-1.993-9.301,0.073c-8.682-3.554-17.751-6.717-26.492-10.212c-8.391-1.002-14.611,2.739-20.828,0.906
			c-0.324-0.096,0.042-0.652-0.75-0.737c-18.586-1.986-25.425,13.541-41.939,12.976c0.003-0.489,0.649-0.345,0.74-0.747
			c-5.34,0.863-9.788,0.062-13.777-1.383c-4.124-3.185-10.497-4.087-13.089-8.828c-1.273-0.266-0.461,1.517-1.853,1.132
			c-4.057-2.128-5.766-6.642-9.003-9.603c0.023,3.476,0.395,6.597,0.819,9.666c0.542,0.199,1.92-0.451,1.864,0.357
			c1.252,6.604,5.059,10.61,8.303,15.189c0.14-1.766-0.021-3.228-0.775-4.087c0.733,0.105,0.733-0.508,1.109-0.752
			c2.944,3.26,2.279,10.184,7.896,10.727c0.442,3.303,4.381,3.051,4.886,6.288c6.045,1.483,8.559,8.552,13.84,9.566
			c-1.817-1.157-1.474-4.504-3.391-5.557c0.959-1.104-0.672-2.459,0.345-3.352c5.74,6.044,10.334,13.251,18.363,16.97
			c1.513,0.171,4.356-0.312,4.85,1.825c2.373-0.912,4.141,2.37,5.212,0.329c-1.496-1.231-3.482-1.963-3.755-4.435
			c4.583,1.094,7.052,4.337,10.837,6.239c1.206,0.451,0.274-1.205,1.481-0.754c3.601,2.591,8.768,3.593,14.541,3.979
			c0.607,1.459-1.605,0.143-1.479,1.126c4.655,0.521,7.706-2.5,11.52-1.577c-0.615,0.624-2.717-0.214-2.594,1.136
			c9.989,0.483,9.885-8.971,18.524-9.818c-0.489,4.075-5.826,5.337-6.261,8.235c7.721-2.983,13.134-8.237,17.373-14.645
			c0.01,0.615,1.032,0.201,1.122,0.735c-1.412,4.144-4.859,6.292-6.993,9.727c7.312-3.262,13.439-7.688,18.125-13.533
			c4.208,0.009,4.475-6.861,7.74-8.99c1.289,4.804-3.152,6.918-4.007,10.819c7.075-3.371,11.083-9.761,14.379-16.852
			c0.503-0.122,0.706-0.537,1.483-0.384c0.701,3.523-2.053,5.599-1.8,7.454c6.345-4.894,8.586-15.573,10.605-23.522
			c1.382-0.399,0.738,1.25,1.501,1.476c2.31-5.3,3.479-11.274,4.705-16.776C287.812,330.538,287.72,329.384,287.242,328.622z
			 M235.869,372.548c-8.243,10.442-29.97,13.46-47.171,10.042c-7.742-1.539-13.141-6.211-17.931-9.534
			c-3.06-3.961-1.533-10.716-0.868-15.99c3.578-1.735,8.206-3.292,11.861-5.674c0.797-0.521,1.393-1.852,2.215-2.248
			c1.362-0.658,3.048-0.402,4.458-0.78c4.375-1.173,9.638-1.587,13.778,1.752c4.997-1.724,10.649-2.805,15.966-4.215
			c0.525,1.502-0.799,1.183-0.727,2.235c0.785,1.105,1.952-0.506,3.348-0.024c5.092,1.825,9.19,4.664,11.234,9.587
			c2.898,0.057,3.117,2.833,4.869,4.054C236.865,365.654,235.945,368.687,235.869,372.548z"/>
	</g>
	<g>
		<path fill-rule="evenodd" clip-rule="evenodd" fill="#3B84A8" d="M198.224,210.523c-0.483,1.979-1.104,3.78,0,5.581
			c3.484,0.508,3.796-2.156,4.837-4.093C201.746,210.789,200.721,209.672,198.224,210.523z"/>
		<path fill-rule="evenodd" clip-rule="evenodd" fill="#3B84A8" d="M216.08,215.357c2.118,0.169,3.497-2.522,1.861-4.834
			C212.389,209.175,213.404,215.145,216.08,215.357z"/>
		<path fill-rule="evenodd" clip-rule="evenodd" fill="#3B84A8" d="M229.474,214.243c1.437,2.963,5.767,0.81,5.208-2.605
			C232.009,210.592,229.591,211.651,229.474,214.243z"/>
		<path fill-rule="evenodd" clip-rule="evenodd" fill="#3B84A8" d="M169.207,211.638c0,0.373,0,0.745,0,1.117
			c-3.001,0.349-1.032,4.771,1.487,4.093c0.48-1.008,2.034-0.942,2.232-2.232c-0.083-1.283-0.967-1.761-1.117-2.977
			C170.941,211.638,170.073,211.638,169.207,211.638z"/>
		<path fill-rule="evenodd" clip-rule="evenodd" fill="#3B84A8" d="M182.97,211.638c-0.506,2.558-0.574,4.771,1.86,5.209
			c1.643-0.817,3.668-3.146,1.861-5.209C185.451,211.638,184.209,211.638,182.97,211.638z"/>
		<path fill-rule="evenodd" clip-rule="evenodd" fill="#3B84A8" d="M306.482,202.71c-2.079-4.741-3.36-10.281-4.093-16.37
			c-4.036-12.829-10.203-23.526-16.368-34.226c-6.92-5.729-10.719-14.578-22.32-15.626c0.333-1.574-2.104-0.378-1.862-1.859
			c-15.11-4.309-30.766-6.619-50.222-5.953c0.007-2.364-1.275-3.438-1.86-5.209c-3.23-0.776-6.103-2.48-10.046-1.487
			c-2.09,2.002-3.905,4.279-5.951,6.324c-5.467-0.01-9.854,1.06-15.626,0.744c-0.585,0.034-0.291,0.949-1.115,0.745
			c-6.226-0.048-10.51,0.799-15.997,0.744c-1.584,0.921-5.421,1.781-6.326,1.117c-3.14,1.819-7.017,2.904-10.788,4.092
			c-11.157,8.56-23.542,15.893-29.39,29.762c-3.455,1.876-3.897,6.77-4.837,11.159c-2.358,2.052-2.485,5.014-3.348,8.186
			c-0.65,2.39-2.502,4.865-3.348,7.439c-1.373,4.179-2.423,8.94-2.231,14.51c-2.345,5.591-2.265,13.608-4.465,19.345
			c1.591,0.811,0.054,1.709,0,2.977c1.256,0.231,0.342,2.633,1.115,3.348c6.702-2.125,12.961-4.093,20.464-5.581
			c7.944-1.575,16.236-0.677,24.923-1.86c0.34-0.046,0.784-1.819,1.118,0c3.427-1.451,10.129-3.034,14.136-1.49
			c3.017-1.571,8.218-0.96,12.649-1.115c4.632-1.46,13.98-0.731,20.462-0.745c17.829-0.033,38.335-0.803,55.06,0
			c7.251,0.35,13.635,0.283,20.46,1.117c13.564,1.657,25.563,6.041,38.319,8.929c3.274-2.826,1.634-10.56,2.977-13.394
			C306.656,213.945,307.289,207.606,306.482,202.71z M205.664,124.584c0.511,1.845,2.746,1.967,2.976,4.093
			c-0.967,0.223-1.339-0.149-1.116-1.116c-1.99,2.226-7.301-0.664-8.556,0.744C199.573,125.438,202.023,124.417,205.664,124.584z
			 M100.753,226.519c0.728-12.913,3.99-23.29,7.068-33.854c1.667-10.611,6.438-18.115,9.672-27.158
			c4.669-5.872,9.159-11.922,14.138-17.486c4.102-0.983,6.822-5.326,10.416-5.581c0.505-0.364,0.483-1.253,1.117-1.488
			c5.863-1.206,8.888-5.249,15.625-5.58c6.632-2.704,15.338-2.669,22.693-2.977c-12.233,8.969-27.607,14.802-35.713,27.901
			c-0.256,1.497,0.355,2.124,0.371,3.349c-9.978,16.106-19.092,34.064-19.344,58.78
			C119.425,222.777,109.579,225.932,100.753,226.519z M223.149,218.334c-2.779-1.388-7.627-0.464-9.673-0.745
			c0.169,0.024-2.129,0.089-1.488,0c-5.327,0.722-13.857,1.855-19.346,1.118c-1.788-0.242-2.849-0.679-4.836-1.118
			c-3.773,2.022-9.327,0.047-13.393,1.862c-3.49-1.717-10.154-0.262-14.88-0.744c0.228-4.113,1.976-6.704,2.977-10.044
			c5.247-0.459,12.347,0.937,16.369-0.746c19.844,0.112,40.408-1.12,60.267,0c1.586,2.753,2.299,6.381,2.606,10.417
			C233.574,219.309,230.707,216.289,223.149,218.334z M183.343,188.573c5.46-2.927,15.18-5.37,20.832-2.976
			c1.203,0.459,0.284-1.203,1.489-0.744c11.987,3.414,26.521,7.349,31.621,19.715c-22.229,0.285-44.583,0.236-72.172,0
			c1.922-3.782,4.677-6.733,7.069-10.043c5.888-0.519,6.683-6.168,11.904-5.579C184.076,188.582,183.631,188.657,183.343,188.573z
			 M245.841,218.334c-0.224-1.623-1.94-4.499-0.743-5.208c-2.34-3.116-1.162-9.751-5.208-11.161
			c-2.357-6.076-7.991-8.873-12.276-13.019c-7.393-4.18-16.851-7.442-28.276-7.442c-13.983,0-25.219,5.096-30.506,13.765
			c-6.423,3.496-8.702,11.138-11.904,17.858c0,2.109,0,4.217,0,6.325c-10.497,0.544-15.084,1.663-24.553,2.231
			c0.136-0.632-0.291-0.701-0.744-0.744c-0.335-4.424,0.229-10.507,1.86-14.137c3.167-31.554,17.856-51.589,38.69-65.477
			c2.925-0.795,5.208-2.231,7.068-4.093c3.078-0.021,4.007-2.192,7.441-1.859c9.236-3.967,20.686-4.603,29.388-1.117
			c-0.426,1.17,0.585,0.904,0.745,1.489c5.064,0.019,7.058,3.109,11.904,3.347c7.259,5.144,16.451,8.352,21.206,15.997
			c0.645,0.472,0.976,1.259,2.233,1.116c3.528,8.128,9.307,14.006,11.533,23.438c3.453,5.847,4.26,14.339,7.438,20.46
			c-0.207,7.65,1.651,13.233,1.488,20.834C262.714,219.329,254.74,218.554,245.841,218.334z M303.877,228.009
			c-8.232-3.099-19.876-4.619-27.901-6.699c0.574-7.89-2.223-12.411-2.232-19.717c-1.94-5.5-2.37-12.511-4.837-17.485
			c-4.065-15.899-11.204-28.726-23.066-36.83c-0.071-2.407-3.124-1.835-3.346-4.092c-4.614-1.463-6.049-6.105-11.532-6.697
			c-0.461,1.204,1.202,0.285,0.743,1.489c-4.727-1.101-6.571-5.085-11.904-5.581c5.132-0.579,14.978,0.01,23.437,1.488
			c3.81,0.666,7.712,0.598,10.79,1.488c0.809,0.233,4.15,2.055,5.58,2.604c0.239,0.908,1.599-0.759,1.861-0.745
			c-0.628-0.032,2.682,0.976,2.975,1.117c2.529,1.207,5.951,4.457,8.556,6.324c1.844,1.321,3.993,1.962,5.209,2.977
			c0.19,0.157-0.173,0.94,0,1.115c0.291,0.289,1.799,0.687,2.232,1.488c0.401,0.742,0.354,1.861,0.744,2.604
			c1.633,3.108,5.086,5.061,5.582,8.186c2.872,1.962,3.031,6.64,5.952,8.557c1.973,7.7,5.379,13.967,8.183,20.833
			c0.207,0.825-0.709,0.53-0.742,1.117C304.065,202.153,304.463,215.408,303.877,228.009z"/>
	</g>
	<path fill-rule="evenodd" clip-rule="evenodd" fill="#E6E6E6" d="M178.857,207.925c-4.021,1.685-11.121,0.289-16.369,0.746
		c-0.999,3.339-2.748,5.93-2.977,10.043c4.728,0.484,11.391-0.973,14.883,0.744c4.065-1.813,9.619,0.16,13.393-1.86
		c1.985,0.439,3.047,0.876,4.834,1.116c5.488,0.74,14.019-0.396,19.346-1.116c-0.642,0.087,1.657,0.022,1.489,0
		c2.044,0.278,6.895-0.642,9.673,0.743c7.558-2.045,10.425,0.977,18.602,0c-0.306-4.036-1.02-7.661-2.606-10.417
		C219.267,206.808,198.703,208.039,178.857,207.925z M170.672,216.855c-2.517,0.677-4.486-3.742-1.486-4.093c0-0.37,0-0.744,0-1.116
		c0.868,0,1.735,0,2.604,0c0.148,1.215,1.034,1.695,1.116,2.976C172.707,215.915,171.153,215.85,170.672,216.855z M184.811,216.855
		c-2.435-0.437-2.367-2.65-1.86-5.209c1.238,0,2.48,0,3.72,0C188.477,213.711,186.454,216.04,184.811,216.855z M198.203,216.111
		c-1.102-1.8-0.482-3.601,0-5.581c2.498-0.851,3.522,0.268,4.837,1.488C201.999,213.955,201.688,216.622,198.203,216.111z
		 M216.06,215.367c-2.676-0.212-3.691-6.183,1.859-4.836C219.556,212.846,218.178,215.534,216.06,215.367z M229.452,214.252
		c0.119-2.593,2.537-3.652,5.209-2.605C235.221,215.061,230.891,217.217,229.452,214.252z"/>
	<path fill-rule="evenodd" clip-rule="evenodd" fill="#4A90BA" d="M263.68,179.654c-2.227-9.432-8.004-15.311-11.534-23.438
		c-1.257,0.142-1.586-0.644-2.231-1.116c-4.755-7.646-13.949-10.853-21.206-15.997c-4.845-0.238-6.839-3.329-11.904-3.348
		c-0.16-0.583-1.169-0.318-0.745-1.488c-8.702-3.486-20.152-2.851-29.39,1.117c-3.435-0.334-4.363,1.837-7.439,1.858
		c-1.861,1.862-4.144,3.298-7.07,4.093c-20.834,13.888-35.523,33.923-38.689,65.476c-1.632,3.629-2.196,9.713-1.861,14.138
		c0.453,0.041,0.88,0.111,0.744,0.744c9.468-0.569,14.057-1.687,24.554-2.233c0-2.108,0-4.215,0-6.324
		c3.201-6.718,5.481-14.36,11.904-17.857c5.288-8.67,16.522-13.765,30.506-13.765c11.425,0,20.883,3.262,28.274,7.44
		c4.286,4.146,9.921,6.944,12.277,13.02c4.046,1.41,2.867,8.043,5.208,11.162c-1.197,0.709,0.519,3.586,0.743,5.207
		c8.898,0.221,16.874,0.995,26.787,2.606c0.162-7.603-1.695-13.188-1.489-20.834C267.94,193.992,267.134,185.5,263.68,179.654z"/>
	<g>
		<path fill-rule="evenodd" clip-rule="evenodd" fill="#62A9CC" d="M300.138,191.558c0.032-0.586,0.948-0.292,0.743-1.117
			c-2.806-6.866-6.211-13.133-8.184-20.833c-2.92-1.917-3.079-6.594-5.952-8.557c-0.496-3.125-3.949-5.077-5.581-8.186
			c-0.392-0.743-0.344-1.862-0.744-2.604c-0.434-0.802-1.944-1.2-2.232-1.489c-0.175-0.175,0.188-0.958,0-1.115
			c-1.216-1.016-3.366-1.656-5.209-2.977c-2.605-1.867-6.028-5.117-8.556-6.325c-0.295-0.14-3.604-1.149-2.977-1.117
			c-0.263-0.013-1.623,1.653-1.86,0.746c-1.429-0.549-4.771-2.372-5.581-2.604c-3.077-0.891-6.978-0.824-10.788-1.489
			c-8.458-1.479-18.305-2.068-23.438-1.488c5.333,0.495,7.177,4.479,11.905,5.581c0.459-1.204-1.203-0.284-0.744-1.488
			c5.484,0.592,6.918,5.234,11.532,6.696c0.224,2.257,3.275,1.685,3.347,4.094c11.863,8.103,19,20.93,23.067,36.829
			c2.468,4.973,2.896,11.984,4.838,17.486c0.007,7.306,2.805,11.826,2.23,19.716c8.025,2.08,19.669,3.598,27.901,6.696
			C304.442,215.417,304.045,202.162,300.138,191.558z"/>
		<path fill-rule="evenodd" clip-rule="evenodd" fill="#62A9CC" d="M143.143,140.962c-0.633,0.234-0.613,1.124-1.116,1.488
			c-3.593,0.254-6.314,4.598-10.417,5.581c-4.979,5.563-9.468,11.614-14.139,17.486c-3.233,9.042-8.004,16.546-9.671,27.156
			c-3.078,10.563-6.341,20.941-7.067,33.854c8.823-0.585,18.671-3.74,26.041-4.091c0.251-24.717,9.366-42.674,19.344-58.78
			c-0.015-1.224-0.627-1.852-0.371-3.348c8.106-13.099,23.479-18.932,35.714-27.901c-7.356,0.308-16.062,0.272-22.694,2.977
			C152.033,135.713,149.006,139.757,143.143,140.962z"/>
	</g>
	<path fill-rule="evenodd" clip-rule="evenodd" fill="#62A9CC" d="M207.503,127.569c-0.225,0.968,0.149,1.34,1.117,1.117
		c-0.23-2.125-2.464-2.248-2.977-4.091c-3.641-0.168-6.09,0.853-6.696,3.72C200.201,126.905,205.513,129.796,207.503,127.569z"/>
</g>
</svg>
