<?xml version="1.0" encoding="utf-8"?>
<!-- Generator: Adobe Illustrator 16.0.0, SVG Export Plug-In . SVG Version: 6.00 Build 0)  -->
<!DOCTYPE svg PUBLIC "-//W3C//DTD SVG 1.1//EN" "http://www.w3.org/Graphics/SVG/1.1/DTD/svg11.dtd">
<svg version="1.1" id="Layer_1" xmlns="http://www.w3.org/2000/svg" xmlns:xlink="http://www.w3.org/1999/xlink" x="0px" y="0px"
	 width="425.979px" height="434.979px" viewBox="-10.86 44.102 425.979 434.979"
	 enable-background="new -10.86 44.102 425.979 434.979" xml:space="preserve">
<circle fill="#FFFFFF" cx="202.129" cy="261.591" r="202.116"/>
<path fill-rule="evenodd" clip-rule="evenodd" fill="#FFFFFF" d="M847.125,569.457c-5.682,3.385-15.268,2.661-22.958,3.934
	c-18.963,1.547-38.716,2.888-56.433-0.303c-0.281-0.282-0.557-0.57-0.824-0.866c-1.714,0.085-4.211-0.298-5.077-0.128
	c-1.831,7.726-3.786,15.317-4.288,24.441c15.117,11.682,31.547,22.115,47.351,33.144c0.375,0.519,0.972,0.886,1.807,0.906
	c0.658,0.017,1.174-0.193,1.563-0.523c0.021,0.071,0.042,0.146,0.065,0.214c9.913-3.855,17.072-10.608,25.522-16.002
	c4.946-1.264,7.082-5.484,11.749-7.041c2.659-2.896,5.954-5.123,8.393-8.254c-1.143-2.766-1.178-6.586-2.591-9.094
	c0.128-0.542,1.292,0.008,0.875-1.107c-0.858-6.982-2.231-13.476-4.308-19.299L847.125,569.457z"/>
<g>
	<path fill-rule="evenodd" clip-rule="evenodd" fill="#F4CDB3" d="M105.576,339.31c-0.583,5.416,4.001,8.923,6.442,12.62
		c3.038,0.802,7.135,0.125,9.248,0.234c5.571,11.943,22.691,31.538,22.691,31.538c7.742,7.333,17.383,12.865,27.301,18.129
		c3.732,0.015,8.846,2.639,9.071,2.632c19.758,4.625,34.057,5.704,48.207-2.211c0.011-0.134,0.009-0.256,0.021-0.392
		c1.207-0.684,2.418-1.364,3.628-2.044c0.431-0.343,0.858-0.697,1.278-1.073c1.114-0.996,2.327-1.505,3.525-1.64
		c12.28-7.005,24.061-14.533,31.513-26.617c0.623,0.335,8.41-10.494,10.693-14.678c2.372-4.346,3.867-10.684,6.763-14.065
		c1.944,0.635,3.462,0.069,6.038,0.51c4.051-5.435,8.242-12.395,7.663-21.515c-2.006-1.797-3.804-3.79-7.005-4.45
		c0.99-7.439,2.312-16.315,2.062-25.216c-0.22-7.805-1.837-25.096-0.637-30.979c1.148-0.283-0.861-1.382-1.342-3.236
		c-0.442-3.167-1.927-5.343-1.544-9.292c-1.95-4.627-3.738-9.407-4.966-14.719c-1.084-0.126-0.74-1.609-1.733-1.824
		c-6.329-16.892-18.693-28.048-32.131-38.184l-2.49-0.062c-1.945-2.896-6.435-3.372-9.112-5.569
		c-4.776-0.667-8.382-2.447-12.358-3.873c-3.359-0.047-5.434-1.313-9.23-0.945c-9.775-2.725-21.352-0.692-33.452-0.137
		c-0.852,1.665-2.924,0.913-4.66,1.305c-2.894,0.658-5.892,2.394-8.617,2.986c-2.055,0.447-3.777,0.078-5.354,0.576
		c-3.692,1.164-7.17,4.625-10.44,4.718c-1.754,3.268-5.285,4.665-8.699,6.187c-0.768,2.234-3.367,2.543-5.078,3.787
		c-3.573,4.273-7.855,7.8-12.036,11.438c0.231,1.094-0.639,1.03-0.409,2.124c-8.805,4.858-11.527,16.112-18.032,23.389
		c-2.002,7.753-6.388,13-6.277,22.976c-4.138,16.839-1.776,35.225,1.201,50.924c-0.24,5.434,1.53,8.961,2.148,13.58
		c-1.816,0.157-2.976,1.006-4.66,1.304C102.842,329.021,104.133,339.785,105.576,339.31z"/>
	<path fill-rule="evenodd" clip-rule="evenodd" fill="#ED8F9C" d="M204.317,376.275c2.727-1.04,6.469-2.475,9.606-1.068
		c0,0.478,0,0.95,0,1.426c3.008,1.021,4.512,3.552,6.404,5.691c-1.98,3.713-8.435,2.949-10.317,6.761
		c-9.665,4.112-11.162-6.058-19.214-6.761c0.297-4.271,6.634-5.42,9.963-7.827c0.412,0.298,0.953,0.471,1.779,0.355
		C203.091,375.366,203.49,376.034,204.317,376.275z M201.115,381.613c2.184,1.004,5.928,2.221,7.827,0
		C206.376,381.113,203.856,380.822,201.115,381.613z"/>
	<path fill-rule="evenodd" clip-rule="evenodd" fill="#E8A8A0" d="M249.32,354.657c3.355,3.435,7.213,8.92,5.808,14.52
		c-1.021,4.059-6.824,7.946-11.292,7.741c-4.005-0.182-6.521-3.707-9.68-4.84c-2.751-4.588-1.244-11.316,1.292-14.84
		C239.129,355.436,243.15,353.971,249.32,354.657z"/>
	<path fill-rule="evenodd" clip-rule="evenodd" fill="#382826" d="M232.855,319.46c-5.706-6.865,10.316-9.032,15.298-11.387
		c9.716-1.521,15.448,2.402,22.059,4.981c0.004,2.015,2.369,1.663,2.135,3.915c-4.045-1.056-6.794-3.405-11.385-3.915
		c-2.016,0-4.032,0-6.048,0C247.952,315.583,240.923,318.042,232.855,319.46z"/>
	<path fill-rule="evenodd" clip-rule="evenodd" fill="#E8A8A0" d="M174.318,359.088c2.535,3.523,4.042,10.252,1.291,14.84
		c-3.158,1.133-5.674,4.658-9.679,4.84c-4.469,0.205-10.273-3.682-11.292-7.741c-1.405-5.599,2.453-11.085,5.808-14.52
		C166.614,355.822,170.635,357.285,174.318,359.088z"/>
	<path fill-rule="evenodd" clip-rule="evenodd" fill="#382826" d="M154.852,313.055c-2.016,0-4.032,0-6.048,0
		c-4.591,0.51-7.342,2.859-11.386,3.915c-0.234-2.252,2.131-1.9,2.135-3.915c6.61-2.579,12.342-6.502,22.058-4.981
		c4.982,2.354,21.004,4.521,15.299,11.387C168.841,318.042,161.812,315.583,154.852,313.055z"/>
	<path fill-rule="evenodd" clip-rule="evenodd" fill="#333333" d="M237.479,333.335c0-0.474,0-0.948,0-1.422
		c-0.271-1.339,1.89-0.245,1.423-1.778c2.674-0.529,5.039-1.365,7.116-2.491c2.416-0.689,4.373-0.02,6.404,0
		c4.142,0.036,6.476-1.578,9.962-3.203c0.813,0.856,0.06,2.151-0.356,2.847c2.844,0.352,3.026-1.954,5.693-1.778
		c-0.297,3.854-5.064,3.236-7.116,5.336c-4.468-0.732-9.834-1.462-14.586-0.71C242.546,330.681,240.751,333.755,237.479,333.335z"/>
	<path fill-rule="evenodd" clip-rule="evenodd" fill="#333333" d="M172.285,333.335c0-0.474,0-0.948,0-1.422
		c0.271-1.339-1.89-0.245-1.423-1.778c-2.675-0.529-5.04-1.365-7.116-2.491c-2.416-0.689-4.373-0.02-6.404,0
		c-4.141,0.036-6.475-1.578-9.961-3.203c-0.814,0.856-0.061,2.151,0.356,2.847c-2.844,0.352-3.026-1.954-5.693-1.778
		c0.297,3.854,5.064,3.236,7.116,5.336c4.468-0.732,9.834-1.462,14.586-0.71C167.219,330.681,169.014,333.755,172.285,333.335z"/>
	<path fill-rule="evenodd" clip-rule="evenodd" fill="#9B7870" d="M252.928,329.935c-2.351-0.147-4.723-0.129-6.958,0.225
		c-0.877,0.138-1.646,0.438-2.361,0.803c-1.864,4.532-0.269,11.58,7.267,8.988c1.125-0.771,1.965-1.828,3.558-2.133
		C255.438,334.4,254.72,331.621,252.928,329.935z"/>
	<g>
		<path fill-rule="evenodd" clip-rule="evenodd" fill="#9B7870" d="M163.696,330.159c-1.746-0.276-3.575-0.35-5.412-0.298
			c-1.855,1.676-2.616,4.483-1.596,7.956c1.593,0.305,2.433,1.362,3.558,2.133c6.968,2.396,8.855-3.451,7.627-7.929
			C166.635,331.26,165.358,330.421,163.696,330.159z"/>
	</g>
	<path fill-rule="evenodd" clip-rule="evenodd" fill="#333333" d="M249.15,330.774c2.276,0.69,3.137,2.794,2.846,6.05
		c-1.236,0.424-3.085,0.234-3.914,1.066C244.572,336.742,244.98,330.824,249.15,330.774z"/>
	<path fill-rule="evenodd" clip-rule="evenodd" fill="#FFFFFF" d="M251.224,330.774c1.126,0.343,1.553,1.385,1.409,2.995
		c-0.612,0.21-1.527,0.116-1.938,0.529C248.958,333.729,249.159,330.8,251.224,330.774z"/>
	<path fill-rule="evenodd" clip-rule="evenodd" fill="#333333" d="M161.973,330.774c-2.276,0.69-3.137,2.794-2.846,6.05
		c1.236,0.424,3.085,0.234,3.914,1.066C166.55,336.742,166.143,330.824,161.973,330.774z"/>
	<path fill-rule="evenodd" clip-rule="evenodd" fill="#FFFFFF" d="M159.899,330.774c-1.127,0.343-1.554,1.385-1.41,2.995
		c0.612,0.21,1.528,0.116,1.938,0.529C162.165,333.729,161.963,330.8,159.899,330.774z"/>
	<g>
		<path fill-rule="evenodd" clip-rule="evenodd" fill="#1E1312" d="M142.357,251.94c-2.654,3.988-7.625,5.658-9.606,10.318
			c1.604-0.261,1.166-0.958,2.49,0c3.715-6.485,10.078-10.32,15.3-15.298C146.469,247.277,145.913,251.107,142.357,251.94z"/>
		<path fill-rule="evenodd" clip-rule="evenodd" fill="#1E1312" d="M309.222,262.258c-1.171-3.332-0.882-8.13-1.422-12.096
			c-0.004-0.471-0.624-0.325-0.713-0.712c-2.102-12.72-7.526-22.122-12.096-32.376c-5.132-5.779-10.896-10.927-16.009-16.723
			c-9.047-4.476-15.047-11.994-23.838-16.722c-0.403-0.429-1.017-0.644-0.714-1.78c-4.18-1.542-7.722-1.695-11.028-4.269
			c1.235-2.372,0.109-3.632,0-6.405c0.594,0,1.187,0,1.779,0c7.541-7.335,16.106-20.252,11.03-35.579
			c-0.52-6.122-3.759-9.524-6.405-13.521c-3.615-0.892-6.215-2.798-8.54-4.98c-7.479-2.782-16.436-2.725-23.125,0.711
			c-7.671-0.859-17.166-3.211-25.617-0.711c-2.381,0.705-6.965,3.616-8.539,4.625c-1.655,1.061-1.433,0.65-2.491,1.779
			c-1.257,1.343-3.585,2.675-4.625,3.914c-0.677,0.807-0.922,2.508-1.779,3.558c-0.588,0.718-1.634,0.769-2.135,1.423
			c-4.128,5.402-6.029,13.671-6.403,21.704c2.235,2.862,1.947,6.648,2.49,10.673c1.403,2.037,3.146,3.734,4.981,5.338
			c2.988-0.499,3.271,1.711,4.979,2.49c-0.239,1.781,0.331,2.754,0.357,4.269c-3.886,0.977-6.871,2.854-11.029,3.559
			c-0.348,0.362-0.703,0.719-1.067,1.067c-13.342,3.618-22.543,11.375-33.444,17.432c-3.271,3.134-5.134,7.675-9.25,9.962
			c-4.685,6.701-10.81,11.96-13.521,20.637c-1.095-0.265-0.683,0.977-1.779,0.711c-1.661,4.15-3.47,8.15-5.693,11.741
			c-2.283,9.158-6.013,17.226-7.471,27.396c-0.415,2.885,0.259,6.621-1.068,9.606c1.195,3.904,2.223,7.976,2.49,12.809
			c0.944,5.223,3.041,9.294,3.915,14.588c1.775,2.613,4.186,4.589,4.98,8.183c2.335,1.461,2.477,5.113,4.982,6.404
			c0.18-0.887-0.012-2.148,1.066-2.136c0.02-1.086-1.281-0.853-1.066-2.133c0.72-10.43,5.761-16.533,9.25-24.196
			c5.426-3.705,7.341-10.922,13.875-13.519c0.12-1.421,1.4-1.685,1.423-3.202c6.54-5.914,14.242-10.665,21.705-15.656
			c4.213-1.123,6.311-4.359,10.673-5.334c0.357-0.473,0.337-1.325,1.066-1.424c2.135,0.118,2.311-1.722,4.626-1.424
			c2.892-2.798,7.982-3.402,11.03-6.047c2.285,0.032,2.837-1.667,4.98-1.781c7.536-7.05,16.822-12.353,22.771-20.991
			c3.803,6.279,8.026,12.136,10.674,19.57c7.736,7.326,13.473,16.651,23.838,21.346c0,0.357,0,0.712,0,1.067
			c6.64,2.495,11.929,6.335,18.145,9.251c0.197,2.412,3.659,1.56,3.914,3.914c1.775-0.136,4.055,1.72,4.981,3.557
			c1.087-0.256,1.297,0.365,2.135,0.357c2.516,4.479,8.11,5.883,9.25,11.74c3.184,3.576,4.688,8.833,6.76,13.521
			c-0.239,1.78,0.331,2.754,0.356,4.269c1.345,0.518,0.684-0.976,1.779-0.712c0.682,1.367-0.45,2.48-1.068,3.56
			c2.108-0.281,1.127,0.687,2.49,1.421c1.5-1.178,1.018-2.621,1.779-4.269c1.157-2.503,3.556-4.113,4.982-6.404
			c1.1-1.767,1.104-3.932,1.777-6.047c0.415-1.296,1.431-2.271,1.779-3.558c1.869-6.875,1.805-13.291,1.779-20.994
			c0.568-0.261-0.08-1.741,1.068-1.421c-1.131-2.225-1.131-8.451,0-10.676C308.616,262.694,308.341,262.214,309.222,262.258z
			 M295.347,220.63c-1.99-2.278-3.964-4.574-5.337-7.471C291.94,215.497,294.316,217.392,295.347,220.63z M236.998,118.875
			c0.45,0.066,0.935-0.629,0.712-0.711c-0.124-0.046,6.068,3.041,6.402,4.269c0.247,0.903,3.16,2.376,3.915,3.202
			c0.934,1.021,1.856,3.268,2.847,4.981c0.669,1.161,0.695,1.724,1.422,3.558c0.314,0.793,1.55,2.817,1.422,4.981
			c2.072-0.08,0.56-2.59,0.711-3.915c1.896,3.628,1.571,7.965,0.714,12.808c-2.555-1.122-1.162-6.191-3.916-7.114
			c0.349-1.654-0.46-2.149-0.711-3.202c-3.938-2.941-7.034-6.723-9.962-10.675c-4.321-2.082-7.034-5.774-9.249-9.962
			C233.115,115.638,235.675,118.685,236.998,118.875z M229.882,121.011c5.857,4.933,11.434,10.149,16.723,15.654
			c-0.096,1.28,0.655,1.715,0.711,2.847c3.903,3.923,5.66,9.993,4.98,18.5c-3.468,3.885-5.112,9.596-9.962,12.098
			c-1.184-0.596-2.193-1.365-2.845-2.49c4.801-3.518,8.102-13.195,4.981-20.281c-1.602-7.295-3.819-13.97-10.317-16.366
			C232.978,127.518,228.281,126.1,229.882,121.011z M181.849,170.465c5.068-1.454,9.021-4.026,14.232-5.337
			c9.596-0.878,18.929-1.177,28.818,1.423c2.978,0.783,8.082,2.859,12.81,2.491c0.966,1.642,2.922,2.294,3.912,3.913
			c0.211,1.515-0.255,2.354-0.356,3.558c-0.964,0.102-1.676,0.458-2.134,1.068c-5.588-1.549-11.688-3.497-18.856-4.626
			c-8.041-1.265-16.579-0.454-23.838,0.712c0.09-2.129-1.709,1.579-1.779-0.712c-3.139,1.202-9.143,1.194-12.453,1.068
			C181.574,173.349,181.947,171.673,181.849,170.465z M186.119,158.012c2.115,0.968,1.827,4.341,3.203,6.048
			c-1.339,1.153-3.048,1.935-5.337,2.136c-3.574-2.948-3.477-9.571-6.048-13.521c1.406-11.519,6.03-19.823,15.654-23.125
			c-1.285,4.089-6.253,7.193-7.473,12.096C184.855,146.734,185.401,152.086,186.119,158.012z M206.399,161.57
			c-1.624,0.783-5.128,0.396-8.182,1.068c-4.365,0.958-6.525-1.378-8.896-4.626c-0.295-7.646,2.757-11.948,6.403-15.655
			C198.018,150.028,199.44,158.567,206.399,161.57z M209.957,131.329c4.06-0.936,8.477-0.078,10.674-2.847
			c1.374,0.07,2.621,0.012,3.558-0.355c0.381-3.229,3.451-3.999,4.27-0.712c-6.953,7.634-19.326,9.848-20.28,23.482
			c1.142,4.314,2.604,8.308,4.982,11.385c-4.9-0.437-6.726-3.948-10.319-5.692c-0.144-1.99-1.303-2.966-2.49-3.914
			C198.074,140.942,200.545,133.496,209.957,131.329z M237.71,137.733c1.183,1.187,2.749,1.993,2.49,4.624
			c-1.785-0.468-2.054-2.454-3.558-3.201C236.787,138.47,238.021,138.875,237.71,137.733z M240.554,145.204
			c0.879,1.599,1.146,8.259-2.134,9.607c-1.095,0.265-0.683-0.977-1.779-0.712c-1.552-4.616-5.588-6.747-9.251-9.252
			c0.146-0.856-0.649-0.772-0.354-1.778c2.685-0.67,4.626-2.382,7.116-2.133C237.404,141.258,237.596,144.608,240.554,145.204z
			 M243.046,151.609c1.339,6.678-2.342,11.415-5.336,14.942c-1.48-0.298-3.072-0.487-3.915-1.423
			c0.812-2.153,2.267-3.662,4.625-4.27C240.528,158.343,242.245,155.434,243.046,151.609z M237.71,155.877
			c0.736,2.992-2.143,2.367-2.136,4.626c-1.339,0.486-2.301-0.234-3.915,0.354c-1.549-1.65-4.026-2.377-4.624-4.98
			c-3.349-1.396-6.919-2.569-9.252-4.98c-1.396-0.33-0.896,1.236-2.49,0.712c1.714-3.981,4.813-6.572,10.318-6.762
			C230.113,148.057,232.115,153.763,237.71,155.877z M232.727,162.638c-1.023-0.042-2.329,0.193-2.845-0.356
			C230.056,161.789,233.09,161.418,232.727,162.638z M227.036,161.57c1.064,1.019,2.98,1.372,3.202,3.202
			c-4.421,1.39-9.959-2.373-12.808-1.424c-3.517-1.731-5.915-6.804-2.847-10.317C220.943,153.712,223.434,158.124,227.036,161.57z
			 M229.882,129.55c3.176,0.973,4.348,3.953,6.76,5.691c-5.737,7.901-22.276,5-24.549,16.368
			C210.186,137.842,224.178,136.894,229.882,129.55z M228.458,117.097c-0.161,2.209-1.174,3.57-1.422,5.693
			c-6.981,5.235-17.934,6.498-26.685,9.962c-5.022,5.414-10.821,10.052-12.097,19.212
			C186.931,127.041,210.656,124.081,228.458,117.097z M170.109,161.214c0.723,0.589,2.104,3.584,3.202,4.982
			C172.847,166.696,170.189,163.448,170.109,161.214z M179.002,169.753c-5.42-4.87-11.843-13.07-7.825-23.126
			c0.245-7.938,4.313-12.053,6.76-17.79c2.878-1.983,4.983-4.74,7.827-6.76c3.1,0.54,5.279-2.997,6.76-1.779
			c4.373-3.783,14.877-2.492,20.992-1.067c-4.224,4.551-14.033,3.518-18.857,7.472c-1.791-0.248-2.479,0.604-4.269,0.355
			c-5.602,4.599-11.628,8.771-12.81,17.789c-4.574,6.322-0.745,18.176,4.625,22.06C182.409,169.126,179.255,167.989,179.002,169.753
			z M138.087,197.504c1.002-1.251,2.116-2.39,4.27-2.49c-3.144,2.551-6.795,4.59-9.606,7.472
			C132.635,200.35,135.882,198.506,138.087,197.504z M124.568,211.381c0.441,1.634-2.06,3.391-3.558,4.269
			C121.668,213.699,123.6,213.024,124.568,211.381z M112.827,225.968c0.343-0.646,1.863-1.719,2.136-2.49
			C115.913,224.589,111.402,228.652,112.827,225.968z M306.375,285.027c-0.263,1.069-1.316,1.367-1.779,2.493
			c-2.033,4.954-1.162,11.92-5.334,14.942c1.512,2.049-1.576,4.209-2.136,6.404c-3.542-8.318-6.249-17.472-13.521-22.061
			c-1.208-4.979-7.356-6.964-11.028-10.318c-0.84-0.767-1.297-2.395-2.49-3.2c-1.086-0.734-1.908-1.029-2.847-1.778
			c-2.026-1.623-4.572-3.365-7.116-4.983c-1.319,0.254-1.526-0.605-2.847-0.354c-2.819-2.754-5.629-5.518-9.249-7.471
			c-1.542-0.354-1.975,0.396-2.847,0.712c-2.767-3.044-5.924-5.7-9.606-7.828c-0.86-1.867-1.95-3.505-3.915-4.271
			c-2.402-3.882-6.248-6.321-8.182-10.671c-0.058-0.418-0.65-0.303-1.068-0.357c-2.084-6.1-6.1-10.266-7.116-17.434
			c-0.62-0.804-1.902-0.943-2.133-2.134c-4.742,7.356-10.154,14.042-16.723,19.568c-0.759,0.165-0.677-0.507-0.713-1.069
			c-7.67,6.207-16.542,11.208-27.04,14.589c-0.57,1.399,1.536,0.123,1.424,1.067c-3.863,2.066-7.612,4.249-12.453,5.337
			c-0.59,0.359-0.387,1.51-0.711,2.133c-9.583,5.006-18.432,10.744-25.617,18.145c-0.363-0.229-0.369-0.818-1.068-0.71
			c-2.012,1.801-4.867,3.778-6.759,6.404c-0.389,0.537-0.245,1.628-0.713,2.136c-0.351,0.382-1.431,0.251-1.777,0.709
			c-1.122,1.48-1.598,3.941-2.847,5.693c-0.654,0.916-1.876,1.224-2.491,2.135c-3.438,5.106-3.739,9.528-5.694,15.3
			c-0.434,1.283-1.36,3.224-0.711,6.047c-6.689-8.857-11.096-24.549-9.606-38.781c0.087-0.84-0.711-1.017-0.711-1.066
			c0.002-2.89,0.605-6.838,2.134-8.895c-0.387-11.18,4.056-17.528,6.405-25.972c5.695-4.503,6.843-13.554,12.807-17.789
			c0.06-1.009,0.654-1.483,0.713-2.492c2.53-1.265,2.729-4.859,5.334-6.048c11.509-13.635,26.771-23.514,44.119-31.31
			c1.977,0.197,3.18-0.379,3.914-1.421c5.828-0.815,10.481-2.803,17.078-2.847c7.58-1.918,16.66-3.611,25.262-2.491
			c0.367,0.048,0.255-0.812,0.711-0.711c0.821,0.601,1.925,0.921,3.558,0.711c3.158,2.891,10.331,1.764,14.23,3.914
			c3.305,0.015,5.907,0.734,7.473,2.491c6.817,1.604,11.297,5.542,16.011,9.249c6.074,3.176,11.702,6.8,16.009,11.742
			c9.072,5.752,15.26,14.39,20.28,24.194c0.054,0.658,1.205,0.217,1.424,0.71c2.349,7.509,6.425,13.061,7.47,20.992
			c0.068,4.321,1.315,7.461,2.49,10.673C305.645,268.049,308.355,277.005,306.375,285.027z"/>
		<path fill-rule="evenodd" clip-rule="evenodd" fill="#1E1312" d="M260.834,243.402c-4.127-1.685-6.473-5.15-9.96-7.473
			c0.292-1.005-0.502-0.921-0.357-1.779c-3.689-0.224-3.816-4.011-7.115-4.624c-9.13-9.963-17.917-20.271-23.838-33.444
			c-0.181,2.436,0.632,3.875,0.356,6.404c5.489,11.945,12.572,22.292,22.771,29.531c-0.44,1.15,1.152,0.271,0.711,1.421
			c4.958,2.515,8.168,6.776,13.875,8.54c0.384,1.692,7.379,4.712,4.27,3.202C261.812,244.084,260.57,244.499,260.834,243.402z
			 M222.053,203.909c0.621,1.159,1.889,1.671,1.781,3.558C223.15,206.371,222.027,205.714,222.053,203.909z M248.382,236.643
			c-5.662-7.266-14.665-11.189-18.856-19.925c7.07,7.043,13.606,14.62,21.702,20.635
			C250.258,238.528,249.999,235.996,248.382,236.643z"/>
		<path fill-rule="evenodd" clip-rule="evenodd" fill="#1E1312" d="M146.982,215.65c1.771-1.193,3.684-2.245,4.626-4.269
			c-9.19,3.854-12.425,13.667-21.705,17.433c-0.727,2.829-3.391,3.723-3.913,6.76c-0.454-0.02-0.494-0.456-1.067-0.357
			c-3.387,6.338-6.819,12.631-10.674,18.501c-0.105,0.702,0.48,0.707,0.714,1.069c-7.501,4.714-6.483,17.949-8.541,28.107
			c2.004,1.673-0.6,7.954,1.425,9.604c-0.184-5.446,1.299-12.646,2.133-16.721c0.513-2.503,0.949-5.638,1.779-8.183
			c0.377-1.152,1.678-2.264,2.136-3.56c1.301-3.692,1.667-8.172,3.202-11.739c0.821-1.906,2.49-3.569,3.558-5.692
			c0.356-0.712-0.008-1.431,0.356-2.136c0.66-1.283,2.231-1.805,3.202-3.202c0.314-0.453-0.014-1.31,0.356-1.778
			c0.586-0.746,1.66-0.759,2.134-1.424c0.435-0.606,0.208-1.8,0.711-2.49c1.303-1.776,3.515-2.963,4.982-4.625
			c2.463-2.791,4.3-6.36,7.828-7.828c-3.499,3.857-8.744,7.86-10.32,12.454c3.199-4.509,7.71-7.708,11.031-12.096
			c3.974-3.143,7.544-6.688,11.74-9.606c0.476,0,0.95,0,1.424,0c0.095-1.328,1.667-1.179,2.134-2.136
			c1.653-0.434,5.147-2.584,3.915-3.557C155.822,210.496,150.873,214.083,146.982,215.65z M110.336,267.95
			c-1.327-1.581,0.977-2.566,0.711-4.269C112.313,263.94,110.328,266.628,110.336,267.95z M111.759,262.612
			c-0.609-0.29-0.229-2.571,0.711-2.49C112.996,261.716,111.428,261.216,111.759,262.612z"/>
		<path fill-rule="evenodd" clip-rule="evenodd" fill="#1E1312" d="M202.486,209.246c-9.311,14.055-26.185,20.543-41.271,28.819
			c1.785-0.586,3.209-1.535,5.336-1.778c-0.111,0.48-0.505,0.68-0.356,1.424c3.851-2.2,9.166-2.931,12.096-6.05
			c5.726-2.102,9.194-6.46,14.944-8.54c2.992-4.123,8.409-5.823,10.319-11.029c-2.868,1.401-4.49,4.051-7.116,5.694
			C198.065,214.787,202.351,212.552,202.486,209.246z"/>
		<path fill-rule="evenodd" clip-rule="evenodd" fill="#1E1312" d="M263.682,213.872c11.634,9.712,22.549,20.144,28.464,35.578
			c0.948-2.264-2.546-5.035-2.136-6.759c2.448,0.278,1.534,3.921,3.558,4.624c-2.853-9.838-9.544-15.833-14.586-23.481
			C273.728,220.667,271.539,214.433,263.682,213.872z"/>
		<path fill-rule="evenodd" clip-rule="evenodd" fill="#1E1312" d="M123.145,245.536c1.834-2.791,4.613-6.533,5.336-9.25
			c-3.165,3.949-5.141,9.089-7.827,13.521C122.521,249.42,122.957,247.602,123.145,245.536z"/>
		<path fill-rule="evenodd" clip-rule="evenodd" fill="#1E1312" d="M276.491,260.122c3.871,4.55,7.328,9.513,10.317,14.944
			c1.289-0.857-1.802-2.188-0.356-3.202c1.181,1.315,2.086,4.786,3.558,4.624c-1.692-4.237-4.958-6.9-6.759-11.028
			C280.732,264.18,279.521,259.706,276.491,260.122z"/>
	</g>
	<g>
		<path fill-rule="evenodd" clip-rule="evenodd" fill="#382826" d="M229.892,162.277c0.516,0.549,1.821,0.313,2.845,0.354
			C233.099,161.412,230.065,161.784,229.892,162.277z"/>
		<path fill-rule="evenodd" clip-rule="evenodd" fill="#382826" d="M179.012,169.748c0.253-1.765,3.406-0.627,3.203-2.847
			c-5.371-3.883-9.199-15.739-4.625-22.059c1.181-9.018,7.208-13.19,12.81-17.79c1.789,0.249,2.478-0.604,4.27-0.355
			c4.823-3.954,14.632-2.921,18.856-7.472c-6.114-1.426-16.619-2.716-20.992,1.066c-1.48-1.218-3.66,2.319-6.76,1.779
			c-2.842,2.021-4.949,4.777-7.827,6.76c-2.447,5.737-6.515,9.852-6.76,17.789C167.168,156.677,173.591,164.878,179.012,169.748z"/>
		<path fill-rule="evenodd" clip-rule="evenodd" fill="#382826" d="M233.805,165.122c0.842,0.936,2.434,1.125,3.914,1.423
			c2.995-3.527,6.676-8.264,5.337-14.943c-0.801,3.827-2.518,6.734-4.626,9.25C236.071,161.461,234.617,162.969,233.805,165.122z"/>
		<path fill-rule="evenodd" clip-rule="evenodd" fill="#382826" d="M227.045,143.064c-0.295,1.005,0.5,0.921,0.354,1.778
			c3.664,2.505,7.7,4.634,9.251,9.252c1.096-0.266,0.684,0.975,1.779,0.71c3.279-1.347,3.012-8.007,2.134-9.605
			c-2.958-0.596-3.15-3.947-6.403-4.27C231.671,140.682,229.73,142.394,227.045,143.064z"/>
		<path fill-rule="evenodd" clip-rule="evenodd" fill="#382826" d="M173.32,166.191c-1.098-1.399-2.479-4.395-3.201-4.982
			C170.199,163.443,172.856,166.691,173.32,166.191z"/>
		<path fill-rule="evenodd" clip-rule="evenodd" fill="#382826" d="M217.438,163.343c2.849-0.951,8.387,2.813,12.808,1.424
			c-0.221-1.83-2.138-2.184-3.202-3.202c-3.602-3.446-6.092-7.859-12.454-8.539C211.523,156.538,213.923,161.612,217.438,163.343z"
			/>
		<path fill-rule="evenodd" clip-rule="evenodd" fill="#382826" d="M188.263,151.958c1.275-9.161,7.075-13.798,12.096-19.212
			c8.752-3.465,19.705-4.727,26.686-9.962c0.249-2.123,1.261-3.484,1.422-5.692C210.665,124.076,186.94,127.035,188.263,151.958z"/>
		<path fill-rule="evenodd" clip-rule="evenodd" fill="#382826" d="M212.102,151.603c2.273-11.367,18.812-8.465,24.549-16.367
			c-2.412-1.739-3.584-4.718-6.759-5.691C224.188,136.887,210.195,137.837,212.102,151.603z"/>
		<path fill-rule="evenodd" clip-rule="evenodd" fill="#382826" d="M215.303,151.603c1.594,0.526,1.094-1.042,2.49-0.71
			c2.333,2.411,5.903,3.584,9.252,4.98c0.597,2.604,3.074,3.329,4.624,4.98c1.614-0.59,2.576,0.132,3.915-0.356
			c-0.006-2.259,2.873-1.633,2.136-4.625c-5.594-2.116-7.596-7.822-12.098-11.03C220.116,145.032,217.017,147.623,215.303,151.603z"
			/>
		<path fill-rule="evenodd" clip-rule="evenodd" fill="#382826" d="M236.651,139.15c1.504,0.748,1.773,2.733,3.558,3.202
			c0.259-2.632-1.307-3.438-2.49-4.625C238.029,138.869,236.797,138.465,236.651,139.15z"/>
		<path fill-rule="evenodd" clip-rule="evenodd" fill="#382826" d="M240.563,127.053c2.928,3.952,6.024,7.734,9.962,10.674
			c0.251,1.053,1.061,1.548,0.711,3.202c2.753,0.924,1.361,5.992,3.916,7.115c0.857-4.844,1.183-9.182-0.714-12.809
			c-0.151,1.324,1.361,3.835-0.711,3.914c0.127-2.163-1.108-4.187-1.422-4.981c-0.727-1.833-0.752-2.396-1.422-3.558
			c-0.99-1.713-1.913-3.96-2.847-4.981c-0.755-0.825-3.667-2.298-3.915-3.202c-0.335-1.228-6.526-4.315-6.403-4.269
			c0.224,0.081-0.261,0.776-0.711,0.71c-1.323-0.191-3.883-3.237-5.693-1.778C233.529,121.279,236.243,124.972,240.563,127.053z"/>
		<path fill-rule="evenodd" clip-rule="evenodd" fill="#382826" d="M290.019,213.155c1.373,2.896,3.347,5.192,5.337,7.471
			C294.326,217.386,291.949,215.492,290.019,213.155z"/>
		<path fill-rule="evenodd" clip-rule="evenodd" fill="#382826" d="M244.479,147.333c3.121,7.087-0.18,16.765-4.981,20.281
			c0.652,1.127,1.662,1.896,2.845,2.491c4.851-2.501,6.494-8.212,9.962-12.098c0.68-8.506-1.078-14.578-4.98-18.499
			c-0.056-1.133-0.807-1.566-0.711-2.847c-5.289-5.505-10.865-10.721-16.722-15.655c-1.602,5.09,3.096,6.507,4.269,9.962
			C240.659,133.364,242.876,140.039,244.479,147.333z"/>
		<path fill-rule="evenodd" clip-rule="evenodd" fill="#382826" d="M202.85,156.584c3.594,1.744,5.419,5.254,10.32,5.692
			c-2.379-3.077-3.841-7.072-4.982-11.385c0.955-13.635,13.327-15.849,20.28-23.483c-0.819-3.287-3.889-2.516-4.269,0.712
			c-0.937,0.368-2.184,0.426-3.559,0.356c-2.197,2.77-6.613,1.912-10.673,2.847c-9.412,2.166-11.883,9.613-9.607,21.347
			C201.547,153.618,202.707,154.593,202.85,156.584z"/>
		<path fill-rule="evenodd" clip-rule="evenodd" fill="#382826" d="M182.215,174.017c3.31,0.128,9.313,0.134,12.454-1.066
			c0.069,2.291,1.869-1.418,1.779,0.712c7.259-1.167,15.798-1.978,23.838-0.712c7.167,1.129,13.268,3.076,18.855,4.626
			c0.458-0.611,1.169-0.966,2.134-1.069c0.102-1.203,0.568-2.042,0.356-3.557c-0.99-1.619-2.947-2.271-3.913-3.913
			c-4.727,0.368-9.832-1.708-12.81-2.492c-9.889-2.601-19.222-2.302-28.819-1.423c-5.211,1.31-9.164,3.883-14.232,5.337
			C181.956,171.668,181.583,173.344,182.215,174.017z"/>
		<path fill-rule="evenodd" clip-rule="evenodd" fill="#382826" d="M189.331,158.006c2.371,3.248,4.53,5.584,8.896,4.625
			c3.054-0.67,6.558-0.284,8.182-1.066c-6.959-3.002-8.381-11.542-10.674-19.213C192.088,146.059,189.036,150.36,189.331,158.006z"
			/>
		<path fill-rule="evenodd" clip-rule="evenodd" fill="#382826" d="M193.601,129.544c-9.625,3.302-14.248,11.606-15.654,23.126
			c2.571,3.95,2.474,10.572,6.048,13.521c2.289-0.201,3.998-0.983,5.337-2.136c-1.376-1.708-1.087-5.082-3.203-6.049
			c-0.717-5.924-1.263-11.277,0-16.366C187.347,136.737,192.315,133.633,193.601,129.544z"/>
		<path fill-rule="evenodd" clip-rule="evenodd" fill="#382826" d="M111.768,262.607c-0.331-1.396,1.237-0.896,0.711-2.49
			C111.539,260.036,111.158,262.317,111.768,262.607z"/>
		<path fill-rule="evenodd" clip-rule="evenodd" fill="#382826" d="M306.385,259.051c-1.176-3.211-2.423-6.352-2.491-10.675
			c-1.045-7.929-5.122-13.481-7.47-20.991c-0.219-0.493-1.371-0.052-1.424-0.711c-5.02-9.802-11.208-18.441-20.28-24.193
			c-4.307-4.941-9.935-8.566-16.009-11.741c-4.713-3.708-9.193-7.646-16.011-9.25c-1.566-1.755-4.168-2.474-7.473-2.49
			c-3.899-2.149-11.072-1.023-14.23-3.913c-1.634,0.209-2.737-0.111-3.558-0.712c-0.456-0.101-0.344,0.759-0.711,0.712
			c-8.602-1.121-17.683,0.572-25.263,2.491c-6.596,0.043-11.25,2.032-17.077,2.846c-0.735,1.043-1.939,1.619-3.915,1.422
			c-17.348,7.796-32.61,17.673-44.119,31.31c-2.605,1.189-2.805,4.783-5.334,6.047c-0.06,1.009-0.653,1.484-0.713,2.493
			c-5.964,4.234-7.112,13.283-12.807,17.789c-2.349,8.444-6.792,14.792-6.405,25.972c-1.528,2.057-2.131,6.005-2.134,8.895
			c0,0.047,0.799,0.227,0.711,1.066c-1.49,14.232,2.917,29.924,9.606,38.781c-0.649-2.823,0.277-4.767,0.712-6.047
			c1.954-5.771,2.254-10.195,5.693-15.3c0.614-0.911,1.837-1.219,2.49-2.135c1.25-1.752,1.726-4.213,2.847-5.693
			c0.347-0.458,1.426-0.327,1.777-0.712c0.468-0.507,0.325-1.596,0.713-2.133c1.892-2.628,4.747-4.604,6.759-6.404
			c0.699-0.108,0.706,0.478,1.067,0.709c7.186-7.399,16.036-13.138,25.618-18.144c0.325-0.623,0.121-1.775,0.711-2.135
			c4.841-1.089,8.59-3.269,12.453-5.335c0.111-0.944-1.995,0.332-1.425-1.067c10.497-3.382,19.37-8.382,27.04-14.589
			c0.036,0.559-0.046,1.234,0.713,1.069c6.568-5.528,11.981-12.212,16.722-19.568c0.231,1.191,1.514,1.329,2.134,2.134
			c1.016,7.168,5.032,11.334,7.116,17.434c0.418,0.054,1.01-0.062,1.068,0.354c1.934,4.35,5.779,6.792,8.182,10.673
			c1.964,0.766,3.054,2.404,3.915,4.269c3.682,2.131,6.839,4.784,9.606,7.831c0.873-0.315,1.305-1.069,2.847-0.715
			c3.62,1.956,6.431,4.72,9.25,7.474c1.321-0.254,1.528,0.606,2.847,0.354c2.544,1.616,5.09,3.36,7.116,4.98
			c0.938,0.752,1.76,1.047,2.846,1.781c1.193,0.806,1.65,2.434,2.49,3.199c3.672,3.353,9.82,5.341,11.029,10.319
			c7.271,4.589,9.979,13.742,13.521,22.061c0.56-2.197,3.647-4.355,2.135-6.404c4.173-3.022,3.302-9.991,5.335-14.944
			c0.462-1.124,1.516-1.422,1.779-2.491C308.365,276.998,305.653,268.044,306.385,259.051z M123.154,245.531
			c-0.188,2.066-0.624,3.884-2.491,4.271c2.686-4.431,4.662-9.572,7.828-13.521C127.767,238.998,124.988,242.74,123.154,245.531z
			 M135.25,262.253c-1.325-0.958-0.887-0.264-2.49,0c1.982-4.66,6.953-6.33,9.606-10.318c3.556-0.833,4.112-4.663,8.184-4.98
			C145.328,251.933,138.965,255.768,135.25,262.253z M156.241,211.731c-0.466,0.956-2.038,0.808-2.133,2.134
			c-0.474,0-0.949,0-1.424,0c-4.196,2.92-7.766,6.465-11.74,9.608c-3.321,4.387-7.832,7.587-11.031,12.096
			c1.576-4.593,6.821-8.596,10.32-12.454c-3.528,1.468-5.365,5.038-7.828,7.828c-1.468,1.66-3.679,2.847-4.982,4.625
			c-0.503,0.69-0.276,1.884-0.711,2.49c-0.473,0.665-1.547,0.677-2.133,1.424c-0.371,0.468-0.042,1.325-0.356,1.778
			c-0.971,1.395-2.542,1.919-3.202,3.202c-0.365,0.705,0,1.424-0.357,2.136c-1.067,2.124-2.737,3.786-3.558,5.692
			c-1.534,3.564-1.9,8.047-3.202,11.739c-0.458,1.296-1.759,2.407-2.136,3.56c-0.831,2.544-1.267,5.68-1.778,8.183
			c-0.835,4.074-2.317,11.274-2.134,16.721c-2.024-1.653,0.58-7.932-1.424-9.606c2.057-10.156,1.039-23.391,8.54-28.105
			c-0.233-0.362-0.818-0.369-0.713-1.069c3.855-5.87,7.288-12.163,10.674-18.501c0.573-0.099,0.613,0.337,1.068,0.357
			c0.522-3.037,3.185-3.931,3.912-6.761c9.28-3.767,12.515-13.578,21.705-17.432c-0.942,2.023-2.854,3.075-4.626,4.269
			c3.892-1.566,8.84-5.156,13.165-7.472C161.389,209.147,157.895,211.297,156.241,211.731z M193.244,223.116
			c-5.75,2.079-9.218,6.437-14.943,8.54c-2.931,3.116-8.246,3.85-12.097,6.047c-0.149-0.744,0.245-0.941,0.356-1.421
			c-2.127,0.244-3.552,1.192-5.336,1.778c15.086-8.276,31.96-14.765,41.271-28.819c-0.136,3.306-4.42,5.54-6.048,8.539
			c2.625-1.642,4.247-4.291,7.116-5.692C201.653,217.293,196.236,218.993,193.244,223.116z M257.286,241.974
			c-5.707-1.764-8.917-6.025-13.875-8.54c0.44-1.15-1.152-0.271-0.711-1.423c-10.198-7.236-17.282-17.584-22.771-29.53
			c0.275-2.529-0.538-3.968-0.356-6.403c5.921,13.173,14.708,23.479,23.838,33.443c3.299,0.614,3.426,4.401,7.115,4.625
			c-0.145,0.857,0.65,0.773,0.357,1.778c3.488,2.323,5.833,5.789,9.96,7.474c-0.265,1.094,0.978,0.682,0.711,1.778
			C264.665,246.686,257.671,243.666,257.286,241.974z M286.461,271.859c-1.446,1.013,1.646,2.345,0.357,3.202
			c-2.99-5.432-6.447-10.395-10.318-14.944c3.03-0.418,4.242,4.058,6.76,5.338c1.801,4.128,5.068,6.791,6.759,11.027
			C288.547,276.643,287.643,273.175,286.461,271.859z M290.019,242.686c-0.41,1.724,3.084,4.496,2.135,6.759
			c-5.915-15.435-16.829-25.866-28.463-35.58c7.857,0.563,10.046,6.795,15.299,9.962c5.042,7.648,11.734,13.644,14.587,23.481
			C291.553,246.604,292.467,242.964,290.019,242.686z"/>
		<path fill-rule="evenodd" clip-rule="evenodd" fill="#382826" d="M138.097,197.499c-2.205,1.001-5.453,2.845-5.337,4.982
			c2.811-2.881,6.462-4.922,9.606-7.472C140.213,195.109,139.099,196.247,138.097,197.499z"/>
		<path fill-rule="evenodd" clip-rule="evenodd" fill="#382826" d="M111.057,263.677c0.266,1.702-2.038,2.688-0.711,4.269
			C110.338,266.62,112.322,263.933,111.057,263.677z"/>
		<path fill-rule="evenodd" clip-rule="evenodd" fill="#382826" d="M114.972,223.473c-0.272,0.77-1.793,1.845-2.136,2.49
			C111.412,228.646,115.922,224.584,114.972,223.473z"/>
		<path fill-rule="evenodd" clip-rule="evenodd" fill="#382826" d="M124.578,211.376c-0.968,1.642-2.9,2.318-3.558,4.269
			C122.518,214.766,125.019,213.009,124.578,211.376z"/>
		<path fill-rule="evenodd" clip-rule="evenodd" fill="#382826" d="M223.843,207.462c0.108-1.888-1.16-2.399-1.781-3.559
			C222.037,205.708,223.16,206.365,223.843,207.462z"/>
		<path fill-rule="evenodd" clip-rule="evenodd" fill="#382826" d="M229.535,216.713c4.191,8.736,13.194,12.66,18.855,19.923
			c1.618-0.645,1.877,1.887,2.847,0.712C243.142,231.333,236.605,223.756,229.535,216.713z"/>
	</g>
	<path fill-rule="evenodd" clip-rule="evenodd" fill="#382826" d="M288.453,329.419c-2.833-0.922-5.653,0.254-8.894,0
		c-0.729-2.475-2.126-4.279-2.492-7.116c-2.347-5.836-8.005-8.36-12.096-12.452c-20.766-5.716-34.027,6.425-38.782,22.059
		c-1.682-2.625-5.494-2.362-8.895-3.201c-3.772-0.931-8.036-2.631-11.917-2.656c0,0.004,0,0.006,0,0.006
		c-3.951-0.053-8.321,1.698-12.179,2.65c-3.402,0.839-7.212,0.576-8.895,3.201c-4.754-15.634-18.015-27.774-38.782-22.059
		c-4.09,4.092-9.748,6.616-12.096,12.452c-0.365,2.837-1.762,4.642-2.491,7.116c-3.241,0.254-6.06-0.922-8.894,0
		c-1,3.412-0.405,2.346-1.068,5.338c0.75,2.806,5.123,1.992,8.184,2.49c2.113,2.628,3.556,5.932,4.624,9.605
		c6.545,6.383,13.563,12.292,26.684,12.098c0.231-0.362,0.818-0.368,0.712-1.069c9.752-0.802,13.935-7.173,19.568-12.096
		c0.537-1.835,1.657-3.087,1.424-5.692c0.984-0.794,1.032-2.525,1.066-4.27c2.061-2.683,7.767-1.722,9.25-4.98
		c4.666-1.674,9.572-1.929,14.243-1.307c0-0.08,0.006-0.162,0.008-0.242c3.753-0.178,7.585,0.226,11.271,1.549
		c1.484,3.259,7.189,2.298,9.25,4.98c0.035,1.744,0.083,3.476,1.066,4.27c-0.232,2.605,0.887,3.857,1.424,5.692
		c5.633,4.923,9.817,11.294,19.568,12.096c-0.105,0.701,0.482,0.707,0.712,1.069c13.122,0.194,20.14-5.715,26.684-12.098
		c1.069-3.674,2.511-6.978,4.625-9.605c3.061-0.498,7.433,0.315,8.183-2.49C288.857,331.765,289.454,332.831,288.453,329.419z
		 M129.868,335.467c-1.535-0.964-4.591-1.05-6.403-0.71c0.357-1.186-0.788-3.871,0.711-3.914c1.488,1.549,3.511,0.545,5.692,1.066
		V335.467z M177.899,344.362c-1.611,2.422-4.448,3.617-5.692,6.405c-4.934,1.113-6.484,5.611-13.52,4.623
		c-2.949,2.354-6.413-1.342-9.251-0.354c-3.682-2.287-9.863-3.84-10.673-7.828c-5.939-2.802-7.311-15.045-3.558-22.058
		c0.485-0.907,1.71-1.45,2.134-2.491c1.602-3.936,4.934-6.161,6.76-8.895c4.669-0.257,7.892-3.058,13.521-2.49
		c5.049,0.508,9.625,2.645,13.52,3.914c5.097,7.151,13.354,16.272,7.116,25.971C178.535,342.625,177.709,342.986,177.899,344.362z
		 M271.73,347.208c-0.81,3.988-6.99,5.541-10.673,7.828c-2.838-0.987-6.302,2.708-9.25,0.354c-7.037,0.988-8.587-3.51-13.52-4.623
		c-1.245-2.788-4.082-3.983-5.692-6.405c0.189-1.376-0.636-1.737-0.357-3.203c-6.237-9.698,2.019-18.819,7.116-25.971
		c3.896-1.27,8.471-3.406,13.52-3.914c5.629-0.567,8.851,2.233,13.521,2.49c1.826,2.733,5.158,4.959,6.76,8.895
		c0.424,1.041,1.65,1.584,2.135,2.491C279.042,332.163,277.671,344.406,271.73,347.208z M287.03,334.757
		c-1.812-0.34-4.868-0.254-6.404,0.71v-3.558c2.181-0.521,4.204,0.482,5.692-1.066C287.817,330.886,286.672,333.571,287.03,334.757z
		"/>
	<path fill-rule="evenodd" clip-rule="evenodd" fill="#382826" d="M124.176,330.843c-1.499,0.042-0.354,2.729-0.711,3.914
		c1.812-0.34,4.868-0.254,6.403,0.71v-3.558C127.687,331.388,125.664,332.392,124.176,330.843z"/>
	<path fill-rule="evenodd" clip-rule="evenodd" fill="#382826" d="M286.318,330.843c-1.488,1.549-3.511,0.545-5.692,1.066v3.558
		c1.536-0.964,4.592-1.05,6.404-0.71C286.672,333.571,287.817,330.885,286.318,330.843z"/>
</g>
</svg>
